<?xml version="1.0" encoding="utf-8"?>
<!-- Generator: Adobe Illustrator 17.0.0, SVG Export Plug-In . SVG Version: 6.00 Build 0)  -->
<!DOCTYPE svg PUBLIC "-//W3C//DTD SVG 1.1//EN" "http://www.w3.org/Graphics/SVG/1.1/DTD/svg11.dtd">
<svg version="1.1" id="Layer_1" xmlns="http://www.w3.org/2000/svg" xmlns:xlink="http://www.w3.org/1999/xlink" x="0px" y="0px"
	 width="652.333px" height="295.333px" viewBox="0 0 652.333 295.333" enable-background="new 0 0 652.333 295.333"
	 xml:space="preserve">
<g>
	<path d="M3.166,204.031c0.074-12.804,27.917-26.343,33.549-35.311c3.751-5.971,7.493-11.947,11.222-17.931
		c6.888-11.053,13.695-22.156,20.632-33.179c14.572-23.154,30.155-45.72,49.458-65.236c10.065-10.176,41.144-42.641,58.494-32.461
		c17.939,10.525-8.716,52.552-14.906,63.108c-15.68,26.738-34.745,51.285-53.882,75.597c31.977-5.199,63.096-15.171,95.005-20.128
		c8.932-1.387,20.43-2.113,28.363,3.18c10.635,7.096,4.346,18.602-1.77,26.67c-10.641,14.036-24.531,25.823-36.857,38.35
		c20.387-10.78,40.641-21.83,61.362-31.963c17.491-8.553,38.816-14.782,53.191-28.364c10.407-9.833,1.359-16.895-8.753-21.898
		c-18.208-9.009-41.413-13.218-56.089-28.143c-36.719-37.343,69.204-72.234,91.253-77.558c18.678-4.509,37.976-7.044,57.208-6.925
		c14.701,0.091,34.852,0.753,45.913,12.052c27.419,28.008-37.412,77.716-54.958,92.668c-4.227,3.602-8.483,7.169-12.738,10.737
		c7.852,0.684,39.432-0.551,44.156,8.059c3.399,6.196-8.25,10.108-12.632,11.883c-13.61,5.513-28.378,8.393-42.271,13.189
		c-18.277,6.308-36.475,12.804-54.772,19.051c-2.561,0.874-16.285,4.36-15.338,8.587c1.284,5.73,26.148,3.035,29.642,2.873
		c60.886-2.827,121.54-12.722,182.183-18.711c17.104-1.689,34.212-3.328,51.328-4.897c23.798-2.182,48.072-0.36,72.029,1.175
		c6.515,0.417,12.668,6.478,18.986,9.949c-3.567,6.188-5.779,14.006-10.931,18.288c-25.474,21.173-56.374,30.854-88.285,35.273
		c-34.298,4.749-69.035,7.766-103.644,8.486c-46.665,0.971-93.433-0.036-140.072-2.101c-20.514-0.909-42.319-2.652-56.234-22.475
		c-1.298-1.849-5.673-2.34-8.539-2.164c-42.768,2.631-87.609,19.323-124.684,40.467c30.824,4.215,63.253,3.402,94.321,3.497
		c31.479,0.096,62.949-0.679,94.403-1.872c62.92-2.385,125.756-6.437,188.588-10.462c35.293-2.261,70.605-4.882,105.94-6.401
		c-103.114,13.101-205.643,22.331-309.57,26c-51.086,1.804-103.077,3.608-154.142,1.439c-27.158-1.153-54.342-0.525-81.484-1.657
		c-7.599-0.317-24.602,0.689-29.978-6.445c-4.059-5.386,0.793-11.884,2.969-17.064c3.051-7.262,4.651-13.721-0.662-20.322
		c-4.023-4.998-13.214-7.234-16.056-12.92C3.455,206.704,3.158,205.372,3.166,204.031z M262.226,210.392
		c-0.306,1.774-0.611,3.548-0.917,5.322c7.535,2.681,14.892,6.855,22.637,7.783c32.25,3.866,64.553,7.799,96.955,9.785
		c67.038,4.109,133.792,1.819,198.31-19.187c16.192-5.272,30.84-15.442,45.888-23.91c2.489-1.401,5.138-6.113,4.514-8.434
		c-0.619-2.301-5.208-4.821-8.182-4.988c-17.311-0.97-34.86-3.236-51.961-1.482c-97.447,9.993-194.793,20.972-292.161,31.736
		C272.219,207.579,267.251,209.242,262.226,210.392z M390.411,23.366c-41.72,1.932-101.602,19.576-128.014,38.882
		c-21.389,15.634-21.082,29.918,3.448,39.508c23.407,9.151,48.402,14.382,72.928,20.401c4.431,1.087,10.975-1.013,14.831-3.917
		c19.492-14.674,38.926-29.518,57.287-45.555c7.099-6.2,12.085-15.289,16.638-23.808c4.939-9.242,1.164-17.029-8.538-20.011
		C409.772,26.032,399.962,25.122,390.411,23.366z M64.912,231.721c25.17-4.664,47.618-8.207,69.742-13.19
		c10.627-2.394,21.712-5.87,30.704-11.743c17.462-11.404,33.901-24.469,50.078-37.685c4.583-3.744,6.792-10.396,10.089-15.714
		c-6.29-0.981-12.554-2.237-18.881-2.825c-3.023-0.281-6.233,0.422-9.24,1.159c-33.252,8.147-66.686,15.652-99.655,24.822
		c-30.234,8.409-35.542,16.014-36.98,46.772C60.629,226.323,63.748,229.482,64.912,231.721z M171.676,27.844
		c-1.245-0.079-2.73-0.626-3.716-0.146c-2.377,1.158-4.927,2.413-6.696,4.298c-25.83,27.524-53.125,53.905-76.494,83.393
		c-9.141,11.535-9.405,30.105-14.412,47.969C100.172,151.929,171.352,53.879,171.676,27.844z M395.374,138.728
		c-40.703-16.677-67.049,11.95-96.695,30.262C330.962,158.887,363.244,148.784,395.374,138.728z M115.815,235.793
		c-19.028-3.02-56.848,6.844-60.939,15.895C75.924,262.207,103.573,253.146,115.815,235.793z M55.066,203.438
		c-16.345,3.075-20.423,16.879-9.402,32.845C49.118,224.215,51.903,214.487,55.066,203.438z M66.943,148.867
		c-0.589-0.887-1.328-1.671-2.233-2.317c-1.854,2.299-12.161,27.954-13.786,27.149C62.535,179.45,73.218,158.313,66.943,148.867z"/>
</g>
</svg>
